# xmcd
#
# Track frame offsets: 
#        150
#        17176
#        36250
#        59047
#        79486
#        110085
#        132060
#        152022
#        175662
#        194798
#        214955
#        232468
#        255805
#        278888
#        297784
#        320880
#
# Disc length: 4612 seconds
#
# Revision: 0
# Processed by: cddbd v1.5.2PL0 Copyright (c) Steve Scherf et al.
# Submitted via: ExactAudioCopy v0.99pb5
#
DISCID=fd120210
DTITLE=Inka Vision - Music of the Anden
DYEAR=1900
DGENRE=Indie
TTITLE0=Churay churay
TTITLE1=Corazon equivocado
TTITLE2=Indio Irlandes
TTITLE3=Vuelbe pronto
TTITLE4=Ponchito
TTITLE5=Se fue
TTITLE6=San Juanito andino
TTITLE7=Lola Lola
TTITLE8=San Juanito cr
TTITLE9=Otavalenita
TTITLE10=Mi pobre corazon
TTITLE11=Aguadulce
TTITLE12=Vervenita
TTITLE13=Mi destino
TTITLE14=Nuca Ilacta
TTITLE15=Montana alta
EXTD=
EXTT0=
EXTT1=
EXTT2=
EXTT3=
EXTT4=
EXTT5=
EXTT6=
EXTT7=
EXTT8=
EXTT9=
EXTT10=
EXTT11=
EXTT12=
EXTT13=
EXTT14=
EXTT15=
PLAYORDER=
